<?xml version="1.0" encoding="UTF-8"?>
<svg width="383px" height="117px" viewBox="0 0 383 117" version="1.1" xmlns="http://www.w3.org/2000/svg" xmlns:xlink="http://www.w3.org/1999/xlink">
    <!-- Generator: Sketch 51.3 (57544) - http://www.bohemiancoding.com/sketch -->
    <title>Artboard</title>
    <desc>Created with Sketch.</desc>
    <defs></defs>
    <g id="Artboard" stroke="none" stroke-width="1" fill="none" fill-rule="evenodd">
        <path d="M35.1831419,63.843 C36.8421419,59.577 40.8711419,55.943 44.9001419,55.943 C46.5591419,55.943 48.7711419,56.654 50.5881419,57.681 C52.8791419,58.945 56.6711419,62.105 59.5151419,62.105 C61.8061419,62.105 63.2281419,59.182 63.9391419,57.681 C64.3341419,56.891 65.2031419,56.259 65.9931419,56.338 C68.1261419,56.575 68.4421419,58.787 67.6521419,60.051 C65.9931419,63.29 63.7021419,66.608 59.6731419,66.608 C53.5901419,66.608 50.3511419,60.604 44.9791419,60.604 C42.3721419,60.604 40.0811419,63.132 39.2911419,65.502 C38.9751419,66.371 38.1061419,67.003 37.1581419,67.003 C35.3411419,67.003 34.6301419,65.107 35.1831419,63.843 Z M72.7731418,94.574 C71.1931418,93.784 71.1141418,91.888 71.7461418,90.545 L101.924142,24.738 C102.477142,23.553 103.425142,23 104.531142,23 C106.506142,23 107.691142,24.896 107.138142,26.555 L76.5651418,93.231 C75.8541418,94.811 74.0371418,95.206 72.7731418,94.574 Z M104.550142,88.096 C102.259142,88.096 100.521142,86.358 100.521142,84.067 C100.521142,81.855 102.259142,80.038 104.550142,80.038 C106.762142,80.038 108.579142,81.855 108.579142,84.067 C108.579142,86.358 106.762142,88.096 104.550142,88.096 Z M151.857142,88.096 C148.934142,88.096 147.433142,85.568 147.433142,82.566 L147.433142,80.512 C144.510142,85.489 138.901142,88.096 133.529142,88.096 L132.818142,88.096 C122.390142,88.096 114.727142,78.3 114.727142,67.082 C114.727142,55.706 122.627142,47.016 133.529142,47.016 C138.822142,47.016 145.063142,49.544 147.433142,54.363 L147.433142,35.798 C147.433142,32.796 148.934142,30.268 151.857142,30.268 C153.279142,30.268 154.543142,31.295 154.543142,32.796 C154.543142,33.744 153.990142,34.692 153.042142,35.087 C153.042142,35.087 152.489142,35.324 152.489142,36.114 L152.489142,82.25 C152.489142,83.04 153.042142,83.277 153.042142,83.277 C153.990142,83.672 154.543142,84.62 154.543142,85.568 C154.543142,87.069 153.279142,88.096 151.857142,88.096 Z M147.433142,67.003 C147.433142,59.024 141.824142,51.993 133.608142,51.993 C125.155142,51.993 119.783142,59.103 119.783142,67.082 C119.783142,74.903 125.076142,83.04 133.608142,83.04 C142.219142,83.04 147.433142,74.982 147.433142,67.003 Z M179.493142,51.677 C170.803142,51.677 163.535142,58.787 163.535142,67.477 C163.535142,76.325 170.803142,83.435 179.493142,83.435 C188.341142,83.435 195.530142,76.325 195.530142,67.477 C195.530142,58.787 188.341142,51.677 179.493142,51.677 Z M179.493142,88.491 C167.959142,88.491 158.558142,79.09 158.558142,67.477 C158.558142,56.022 167.959142,46.621 179.493142,46.621 C191.106142,46.621 200.507142,56.022 200.507142,67.477 C200.507142,79.09 191.106142,88.491 179.493142,88.491 Z M209.657142,35.166 C212.580142,35.166 214.081142,37.694 214.081142,40.696 L214.081142,47.016 L223.087142,47.016 C224.430142,47.016 225.299142,48.28 225.299142,49.544 C225.299142,51.045 224.114142,52.072 222.771142,52.072 L214.081142,52.072 L214.081142,73.244 C214.081142,78.142 214.871142,83.04 220.638142,83.04 C222.060142,83.04 223.798142,82.645 225.141142,82.25 C226.721142,81.855 228.064142,82.724 228.380142,83.988 C228.696142,85.173 228.380142,86.595 226.642142,87.148 C224.904142,87.701 222.850142,88.096 220.638142,88.096 C212.264142,88.096 209.025142,82.487 209.025142,73.244 L209.025142,52.072 L206.655142,52.072 C205.075142,52.072 204.127142,50.887 204.127142,49.544 C204.127142,48.28 204.996142,47.016 206.339142,47.016 L209.025142,47.016 L209.025142,41.012 C209.025142,40.222 208.472142,39.985 208.472142,39.985 C207.524142,39.59 206.971142,38.642 206.971142,37.694 C206.971142,36.193 208.235142,35.166 209.657142,35.166 Z M236.108142,88.096 C234.686142,88.096 233.422142,87.069 233.422142,85.568 C233.422142,84.62 233.975142,83.672 234.923142,83.277 C234.923142,83.277 235.476142,83.04 235.476142,82.25 L235.476142,52.072 L232.790142,52.072 C231.447142,52.072 230.578142,50.808 230.578142,49.544 C230.578142,48.201 231.526142,47.016 233.106142,47.016 L235.476142,47.016 L235.476142,43.54 C235.476142,36.509 238.715142,30.268 247.089142,30.268 C249.301142,30.268 251.355142,30.663 253.093142,31.216 C254.120142,31.532 254.989142,32.48 254.989142,33.744 C254.989142,35.482 253.251142,36.588 251.592142,36.193 C250.249142,35.798 248.511142,35.324 247.089142,35.324 C242.191142,35.324 240.532142,38.01 240.532142,43.54 L240.532142,47.016 L250.802142,47.016 C252.145142,47.016 253.330142,48.043 253.330142,49.544 C253.330142,50.808 252.461142,52.072 251.118142,52.072 L240.532142,52.072 L240.532142,82.566 C240.532142,85.568 239.031142,88.096 236.108142,88.096 Z M263.902142,88.096 C260.979142,88.096 259.478142,85.568 259.478142,82.566 L259.478142,52.862 C259.478142,52.072 258.925142,51.835 258.925142,51.835 C257.977142,51.44 257.424142,50.492 257.424142,49.544 C257.424142,48.043 258.688142,47.016 260.110142,47.016 C263.033142,47.016 264.534142,49.544 264.534142,52.546 L264.534142,82.25 C264.534142,83.04 265.087142,83.277 265.087142,83.277 C266.035142,83.672 266.588142,84.62 266.588142,85.568 C266.588142,87.069 265.324142,88.096 263.902142,88.096 Z M261.216142,37.536 C259.241142,37.536 257.582142,35.877 257.582142,33.902 C257.582142,31.848 259.241142,30.268 261.216142,30.268 C263.191142,30.268 264.929142,31.848 264.929142,33.823 C264.929142,35.877 263.270142,37.536 261.216142,37.536 Z M278.266141,88.096 C275.343141,88.096 273.842141,85.568 273.842141,82.566 L273.842141,36.114 C273.842141,35.324 273.289141,35.087 273.289141,35.087 C272.341141,34.692 271.788141,33.744 271.788141,32.796 C271.788141,31.295 273.052141,30.268 274.474141,30.268 C277.397141,30.268 278.898141,32.796 278.898141,35.798 L278.898141,82.25 C278.898141,83.04 279.451141,83.277 279.451141,83.277 C280.399141,83.672 280.952141,84.62 280.952141,85.568 C280.952141,87.069 279.688141,88.096 278.266141,88.096 Z M292.472141,65.028 L320.912141,65.028 C319.964141,57.997 314.039141,51.677 306.613141,51.677 C299.345141,51.677 293.262141,57.997 292.472141,65.028 Z M323.361141,70.084 L292.472141,70.084 C293.499141,77.036 299.187141,83.435 306.613141,83.435 C312.143141,83.435 316.093141,81.776 318.700141,79.169 C319.253141,78.616 319.964141,78.379 320.675141,78.379 C321.939141,78.379 323.203141,79.406 323.203141,80.749 C323.203141,81.46 322.966141,82.092 322.492141,82.566 C318.937141,86.358 313.802141,88.491 306.613141,88.491 C295.237141,88.491 287.337141,78.695 287.337141,67.477 C287.337141,56.733 295.237141,46.621 306.613141,46.621 C318.068141,46.621 326.047141,56.654 326.047141,67.477 C326.047141,68.978 324.704141,70.084 323.361141,70.084 Z M355.502141,77.826 C355.502141,85.647 346.812141,88.491 340.650141,88.491 C336.779141,88.491 332.197141,86.911 328.958141,84.778 C328.168141,84.225 327.852141,83.435 327.852141,82.645 C327.852141,80.828 329.985141,79.406 332.197141,80.907 C334.488141,82.566 337.648141,83.435 340.966141,83.435 C345.864141,83.435 350.367141,81.065 350.367141,77.826 C350.367141,73.797 345.390141,72.059 340.887141,70.242 C335.673141,68.188 327.694141,64.791 327.694141,57.681 C327.694141,51.361 334.251141,46.621 341.598141,46.621 C345.864141,46.621 349.893141,48.122 352.737141,50.413 C353.448141,51.045 353.764141,51.835 353.764141,52.546 C353.764141,54.363 351.473141,55.785 349.577141,54.363 C347.365141,52.625 344.442141,51.677 341.598141,51.677 C336.858141,51.677 332.750141,54.442 332.750141,57.76 C332.750141,61.552 338.359141,63.685 342.151141,65.186 C347.997141,67.556 355.502141,71.19 355.502141,77.826 Z" id="~/.dotf-iles" fill="#0056BD"></path>
    </g>
</svg>